<svg width="1600" height="1000" viewBox="0 0 1600 1000" fill="none" xmlns="http://www.w3.org/2000/svg">
  <rect width="1600" height="1000" fill="#F6F7FB"/>

  <rect x="80" y="40" width="1440" height="70" rx="24" fill="#FFFFFF"/>
  <rect x="120" y="64" width="140" height="22" rx="11" fill="#111827"/>
  <rect x="290" y="64" width="70" height="14" rx="7" fill="#CBD5F0"/>
  <rect x="380" y="64" width="70" height="14" rx="7" fill="#CBD5F0"/>
  <rect x="470" y="64" width="70" height="14" rx="7" fill="#CBD5F0"/>
  <rect x="1340" y="58" width="140" height="28" rx="14" fill="#4F46E5"/>

  <rect x="80" y="140" width="1440" height="220" rx="36" fill="#111827"/>
  <rect x="120" y="180" width="520" height="22" rx="11" fill="#C7D2FE"/>
  <rect x="120" y="216" width="760" height="40" rx="20" fill="#FFFFFF"/>
  <rect x="120" y="276" width="280" height="34" rx="17" fill="#4F46E5"/>
  <rect x="120" y="328" width="140" height="16" rx="8" fill="#9CA3AF"/>

  <rect x="920" y="170" width="560" height="160" rx="28" fill="#1F2937"/>
  <rect x="950" y="200" width="500" height="22" rx="11" fill="#374151"/>
  <rect x="950" y="236" width="320" height="18" rx="9" fill="#4B5563"/>
  <rect x="950" y="270" width="260" height="18" rx="9" fill="#4B5563"/>

  <rect x="80" y="390" width="1040" height="500" rx="36" fill="#FFFFFF"/>
  <rect x="120" y="430" width="300" height="28" rx="14" fill="#111827"/>
  <rect x="120" y="470" width="560" height="52" rx="26" fill="#F3F4F6"/>
  <rect x="120" y="540" width="980" height="80" rx="24" fill="#F8FAFC"/>
  <rect x="140" y="560" width="56" height="56" rx="16" fill="#E2E8F0"/>
  <rect x="210" y="560" width="260" height="16" rx="8" fill="#111827"/>
  <rect x="210" y="584" width="180" height="12" rx="6" fill="#94A3B8"/>
  <rect x="880" y="564" width="180" height="32" rx="16" fill="#4F46E5"/>

  <rect x="120" y="640" width="980" height="80" rx="24" fill="#F8FAFC"/>
  <rect x="140" y="660" width="56" height="56" rx="16" fill="#E2E8F0"/>
  <rect x="210" y="660" width="260" height="16" rx="8" fill="#111827"/>
  <rect x="210" y="684" width="180" height="12" rx="6" fill="#94A3B8"/>
  <rect x="880" y="664" width="180" height="32" rx="16" fill="#111827"/>

  <rect x="120" y="740" width="980" height="80" rx="24" fill="#F8FAFC"/>
  <rect x="140" y="760" width="56" height="56" rx="16" fill="#E2E8F0"/>
  <rect x="210" y="760" width="260" height="16" rx="8" fill="#111827"/>
  <rect x="210" y="784" width="180" height="12" rx="6" fill="#94A3B8"/>
  <rect x="880" y="764" width="180" height="32" rx="16" fill="#E5E7EB"/>

  <rect x="1140" y="390" width="380" height="500" rx="36" fill="#FFFFFF"/>
  <rect x="1180" y="430" width="200" height="18" rx="9" fill="#111827"/>
  <rect x="1180" y="470" width="300" height="44" rx="22" fill="#F3F4F6"/>
  <rect x="1180" y="530" width="300" height="44" rx="22" fill="#F3F4F6"/>
  <rect x="1180" y="590" width="300" height="44" rx="22" fill="#F3F4F6"/>
  <rect x="1180" y="660" width="300" height="52" rx="26" fill="#4F46E5"/>

  <rect x="80" y="920" width="1440" height="40" rx="20" fill="#FFFFFF"/>
  <rect x="120" y="934" width="220" height="12" rx="6" fill="#CBD5F0"/>
  <rect x="1380" y="934" width="120" height="12" rx="6" fill="#CBD5F0"/>
</svg>
